<svg width="16" height="18" viewBox="0 0 16 18" fill="none" xmlns="http://www.w3.org/2000/svg">
<path d="M14.8745 14.3336V3.66698C14.8745 2.78742 14.8745 2.34715 14.6894 2.08691C14.5279 1.85977 14.2789 1.71064 14.0024 1.67499C13.6858 1.63415 13.2975 1.84126 12.522 2.25487L2.52197 7.58821L2.51834 7.58982C1.66128 8.04692 1.23256 8.27557 1.09192 8.58033C0.969244 8.84619 0.969244 9.15308 1.09192 9.41894C1.23275 9.72413 1.66249 9.95371 2.52197 10.4121L12.522 15.7454C13.2981 16.1593 13.6857 16.3657 14.0024 16.3248C14.2789 16.2891 14.5279 16.1401 14.6894 15.9129C14.8745 15.6527 14.8745 15.2132 14.8745 14.3336Z" stroke="white" stroke-width="2" stroke-linecap="round" stroke-linejoin="round"/>
</svg>
